<svg t="1650028377190" class="icon" viewBox="0 0 1024 1024" version="1.1" xmlns="http://www.w3.org/2000/svg" p-id="1416" width="200" height="200"><path d="M739.049 206.989l26.839 107.644c4.81 19.292-6.93 38.83-26.222 43.64-19.292 4.81-38.83-6.93-43.64-26.221L645.223 128.29c-3.11-12.476 0.7-25.054 8.997-33.686 6.604-7.917 16.543-12.954 27.658-12.954h210c19.883 0 36 16.117 36 36 0 19.882-16.117 36-36 36H787.771c125.761 98.736 192.347 260.543 166.228 425.454-38.909 245.658-268.295 413.572-512.457 374.9C197.38 915.335 31.11 684.754 70.018 439.096 104.488 221.458 290.05 61.474 506.727 58.697c19.88-0.254 36.203 15.656 36.458 35.536 0.255 19.88-15.655 36.204-35.536 36.459-181.664 2.327-337.541 136.717-366.518 319.667-32.705 206.496 106.902 400.1 311.674 432.532 204.773 32.433 397.374-108.554 430.08-315.05 22.258-140.53-35.513-278.3-143.836-360.852z" p-id="1417" data-spm-anchor-id="a313x.7781069.0.i1" class="selected" fill="#1890ff"></path></svg>